<svg width="86" height="29" viewBox="0 0 86 29" fill="none" xmlns="http://www.w3.org/2000/svg">
<path d="M73.4793 29L76.6248 20.5081L76.6853 23.0066L69.5625 5.79988H73.3583L78.4093 18.5302H77.4415L82.3563 5.79988H86.0009L76.897 29H73.4793Z" fill="black"/>
<path d="M63.1562 21.8616V0H66.8008V21.8616H63.1562Z" fill="black"/>
<path d="M45.2148 21.8615V21.3707L53.8651 8.93784H46.092V5.79988H59.5361V6.30552L50.9161 18.7235H59.1731V21.8615H45.2148Z" fill="black"/>
<path d="M34.6079 22.3078C33.1057 22.3078 31.795 21.936 30.6759 21.1925C29.5569 20.4489 28.6898 19.4376 28.0748 18.1586C27.4598 16.8796 27.1523 15.437 27.1523 13.8309C27.1523 12.2049 27.4598 10.7574 28.0748 9.48831C28.6999 8.20934 29.5821 7.20301 30.7213 6.46933C31.8606 5.72574 33.2014 5.35394 34.744 5.35394C36.2966 5.35394 37.5971 5.72574 38.6456 6.46933C39.7042 7.20301 40.5057 8.20934 41.0501 9.48831C41.5946 10.7673 41.8668 12.2148 41.8668 13.8309C41.8668 15.4271 41.5946 16.8697 41.0501 18.1586C40.5057 19.4376 39.6941 20.4489 38.6154 21.1925C37.5366 21.936 36.2008 22.3078 34.6079 22.3078ZM35.1674 19.0955C36.1453 19.0955 36.9317 18.8774 37.5265 18.4412C38.1315 17.995 38.57 17.3753 38.8422 16.5822C39.1245 15.789 39.2657 14.8719 39.2657 13.8309C39.2657 12.7799 39.1245 11.8629 38.8422 11.0796C38.57 10.2864 38.1415 9.67173 37.5568 9.23549C36.972 8.78934 36.2159 8.56626 35.2884 8.56626C34.3104 8.56626 33.5039 8.80421 32.8687 9.28011C32.2336 9.74609 31.7648 10.3806 31.4623 11.1837C31.1599 11.9769 31.0086 12.8593 31.0086 13.8309C31.0086 14.8124 31.1548 15.7047 31.4472 16.5078C31.7497 17.301 32.2084 17.9306 32.8234 18.3965C33.4384 18.8625 34.2197 19.0955 35.1674 19.0955ZM39.2657 21.8617V10.5888H38.812V0.446236H42.4868V21.8617H39.2657Z" fill="black"/>
<path d="M19.8848 3.3611V0.0744247H23.5293V3.3611H19.8848ZM19.8848 21.8617V5.80008H23.5293V21.8617H19.8848Z" fill="black"/>
<path d="M0 15.9836V0.446236H3.64458V10.3806L12.3402 0.446236H16.8165L7.45552 10.9458L0 18.1394V15.9836Z" fill="black"/>
<path d="M13 22L5.5 14.5L8 12L17.5 22H13Z" fill="#F3BD98"/>
</svg>
